<?xml version="1.0" encoding="UTF-8" standalone="no"?>
<!DOCTYPE svg PUBLIC "-//W3C//DTD SVG 1.1//EN"
 "http://www.w3.org/Graphics/SVG/1.1/DTD/svg11.dtd">
<!-- Generated by graphviz version 12.0.0 (20240704.0754)
 -->
<!-- Pages: 1 -->
<svg width="964pt" height="409pt"
 viewBox="0.00 0.00 964.00 409.48" xmlns="http://www.w3.org/2000/svg" xmlns:xlink="http://www.w3.org/1999/xlink">
<g id="graph0" class="graph" transform="scale(1 1) rotate(0) translate(4 405.48)">
<polygon fill="white" stroke="none" points="-4,4 -4,-405.48 960,-405.48 960,4 -4,4"/>
<!-- &#45;1 -->
<g id="node1" class="node">
<title>&#45;1</title>
<polygon fill="lightgray" stroke="black" points="211.75,-247.73 188.25,-247.73 188.25,-228.48 211.75,-228.48 211.75,-247.73"/>
<text text-anchor="middle" x="200" y="-235.18" font-family="Times New Roman,serif" font-size="9.00">&#45;1</text>
</g>
<!-- 2 -->
<g id="node19" class="node">
<title>2</title>
<ellipse fill="lightblue" stroke="black" cx="221" cy="-163.57" rx="14.5" ry="14.5"/>
<text text-anchor="middle" x="221" y="-160.65" font-family="Times New Roman,serif" font-size="9.00">2</text>
</g>
<!-- &#45;1&#45;&gt;2 -->
<g id="edge1" class="edge">
<title>&#45;1&#45;&gt;2</title>
<path fill="none" stroke="green" stroke-width="0.63" d="M202.58,-228.21C205.44,-218.3 210.2,-201.87 214.16,-188.19"/>
<polygon fill="green" stroke="green" stroke-width="0.63" points="217.43,-189.47 216.85,-178.89 210.71,-187.53 217.43,-189.47"/>
</g>
<!-- &#45;2 -->
<g id="node2" class="node">
<title>&#45;2</title>
<polygon fill="lightgray" stroke="black" points="851.75,-247.73 828.25,-247.73 828.25,-228.48 851.75,-228.48 851.75,-247.73"/>
<text text-anchor="middle" x="840" y="-235.18" font-family="Times New Roman,serif" font-size="9.00">&#45;2</text>
</g>
<!-- 3 -->
<g id="node20" class="node">
<title>3</title>
<ellipse fill="lightblue" stroke="black" cx="705" cy="-163.57" rx="14.5" ry="14.5"/>
<text text-anchor="middle" x="705" y="-160.65" font-family="Times New Roman,serif" font-size="9.00">3</text>
</g>
<!-- &#45;2&#45;&gt;3 -->
<g id="edge2" class="edge">
<title>&#45;2&#45;&gt;3</title>
<path fill="none" stroke="green" stroke-width="0.34" d="M831.39,-228.29C826.57,-223.67 820.27,-218.14 814,-214.07 786.46,-196.19 751.4,-181.53 728.59,-172.92"/>
<polygon fill="green" stroke="green" stroke-width="0.34" points="729.83,-169.65 719.24,-169.48 727.41,-176.22 729.83,-169.65"/>
</g>
<!-- &#45;3 -->
<g id="node3" class="node">
<title>&#45;3</title>
<polygon fill="lightgray" stroke="black" points="712.75,-401.48 689.25,-401.48 689.25,-382.23 712.75,-382.23 712.75,-401.48"/>
<text text-anchor="middle" x="701" y="-388.93" font-family="Times New Roman,serif" font-size="9.00">&#45;3</text>
</g>
<!-- &#45;4 -->
<g id="node4" class="node">
<title>&#45;4</title>
<polygon fill="lightgray" stroke="black" points="670.75,-401.48 647.25,-401.48 647.25,-382.23 670.75,-382.23 670.75,-401.48"/>
<text text-anchor="middle" x="659" y="-388.93" font-family="Times New Roman,serif" font-size="9.00">&#45;4</text>
</g>
<!-- 0 -->
<g id="node17" class="node">
<title>0</title>
<ellipse fill="lightblue" stroke="black" cx="467" cy="-163.57" rx="14.5" ry="14.5"/>
<text text-anchor="middle" x="467" y="-160.65" font-family="Times New Roman,serif" font-size="9.00">0</text>
</g>
<!-- &#45;4&#45;&gt;0 -->
<g id="edge3" class="edge">
<title>&#45;4&#45;&gt;0</title>
<path fill="none" stroke="green" stroke-width="0.12" d="M647,-386.1C614.27,-372.42 523.13,-329.63 482,-262.15 468.33,-239.71 465.65,-209.16 465.7,-188.26"/>
<polygon fill="green" stroke="green" stroke-width="0.12" points="469.2,-188.55 465.93,-178.47 462.2,-188.39 469.2,-188.55"/>
</g>
<!-- 1 -->
<g id="node18" class="node">
<title>1</title>
<ellipse fill="lightblue" stroke="black" cx="495" cy="-14.5" rx="14.5" ry="14.5"/>
<text text-anchor="middle" x="495" y="-11.57" font-family="Times New Roman,serif" font-size="9.00">1</text>
</g>
<!-- &#45;4&#45;&gt;1 -->
<g id="edge4" class="edge">
<title>&#45;4&#45;&gt;1</title>
<path fill="none" stroke="red" stroke-width="0.44" d="M670.84,-385.49C673.79,-384.3 676.97,-383.12 680,-382.23 764.98,-357.27 800.75,-392.94 876,-346.23 926.49,-314.9 956,-298.53 956,-239.11 956,-239.11 956,-239.11 956,-162.57 956,-70.24 616.11,-28.03 520.03,-17.95"/>
<polygon fill="red" stroke="red" stroke-width="0.44" points="520.53,-14.48 510.22,-16.94 519.82,-21.44 520.53,-14.48"/>
</g>
<!-- &#45;4&#45;&gt;3 -->
<g id="edge5" class="edge">
<title>&#45;4&#45;&gt;3</title>
<path fill="none" stroke="red" stroke-width="0.32" d="M670.86,-385.56C673.81,-384.36 676.99,-383.17 680,-382.23 752.51,-359.72 794.6,-401.18 847,-346.23 887.77,-303.49 895.89,-261.73 861,-214.07 830.74,-172.71 765.69,-165.06 729.89,-164.15"/>
<polygon fill="red" stroke="red" stroke-width="0.32" points="730.3,-160.65 720.27,-164.06 730.24,-167.65 730.3,-160.65"/>
</g>
<!-- 3479 -->
<g id="node24" class="node">
<title>3479</title>
<ellipse fill="white" stroke="black" cx="414" cy="-238.11" rx="24.04" ry="24.04"/>
<text text-anchor="middle" x="414" y="-235.18" font-family="Times New Roman,serif" font-size="9.00">3479</text>
</g>
<!-- &#45;4&#45;&gt;3479 -->
<g id="edge40" class="edge">
<title>&#45;4&#45;&gt;3479</title>
<path fill="none" stroke="red" stroke-width="0.17" d="M647.15,-385.51C644.2,-384.32 641.02,-383.14 638,-382.23 557.33,-358.12 515.82,-401.15 452,-346.23 430.63,-327.84 421.28,-296.62 417.18,-272.61"/>
<polygon fill="red" stroke="red" stroke-width="0.17" points="420.65,-272.12 415.73,-262.74 413.73,-273.15 420.65,-272.12"/>
</g>
<!-- 3642 -->
<g id="node25" class="node">
<title>3642</title>
<ellipse fill="white" stroke="black" cx="637" cy="-322.19" rx="24.04" ry="24.04"/>
<text text-anchor="middle" x="637" y="-319.27" font-family="Times New Roman,serif" font-size="9.00">3642</text>
</g>
<!-- &#45;4&#45;&gt;3642 -->
<g id="edge48" class="edge">
<title>&#45;4&#45;&gt;3642</title>
<path fill="none" stroke="red" stroke-width="0.17" d="M656.12,-382.01C653.87,-375.08 650.59,-364.99 647.38,-355.11"/>
<polygon fill="red" stroke="red" stroke-width="0.17" points="650.73,-354.11 644.31,-345.68 644.08,-356.27 650.73,-354.11"/>
</g>
<!-- &#45;5 -->
<g id="node5" class="node">
<title>&#45;5</title>
<polygon fill="lightgray" stroke="black" points="233.75,-401.48 210.25,-401.48 210.25,-382.23 233.75,-382.23 233.75,-401.48"/>
<text text-anchor="middle" x="222" y="-388.93" font-family="Times New Roman,serif" font-size="9.00">&#45;5</text>
</g>
<!-- &#45;5&#45;&gt;1 -->
<g id="edge6" class="edge">
<title>&#45;5&#45;&gt;1</title>
<path fill="none" stroke="red" stroke-width="0.37" d="M210.06,-388.79C163.95,-380.07 0,-341.82 0,-239.11 0,-239.11 0,-239.11 0,-162.57 0,-88.18 66.91,-92.56 136,-64.99 254.3,-17.78 410.01,-14.29 469.98,-14.89"/>
<polygon fill="red" stroke="red" stroke-width="0.37" points="469.72,-18.39 479.78,-15.04 469.83,-11.39 469.72,-18.39"/>
</g>
<!-- &#45;5&#45;&gt;2 -->
<g id="edge7" class="edge">
<title>&#45;5&#45;&gt;2</title>
<path fill="none" stroke="red" stroke-width="0.2" d="M209.9,-382.08C199.78,-374 185.92,-361.05 179,-346.23 154.1,-292.88 147.06,-268.29 170,-214.07 176.28,-199.22 189.44,-186.63 200.82,-177.86"/>
<polygon fill="red" stroke="red" stroke-width="0.2" points="202.72,-180.81 208.78,-172.11 198.62,-175.13 202.72,-180.81"/>
</g>
<!-- 598 -->
<g id="node23" class="node">
<title>598</title>
<ellipse fill="white" stroke="black" cx="637" cy="-238.11" rx="20.86" ry="20.86"/>
<text text-anchor="middle" x="637" y="-235.18" font-family="Times New Roman,serif" font-size="9.00">598</text>
</g>
<!-- &#45;5&#45;&gt;598 -->
<g id="edge33" class="edge">
<title>&#45;5&#45;&gt;598</title>
<path fill="none" stroke="red" stroke-width="0.32" d="M234.24,-388.33C283.32,-377.87 469.8,-335.12 607,-262.15 609.03,-261.07 611.06,-259.86 613.06,-258.57"/>
<polygon fill="red" stroke="red" stroke-width="0.32" points="614.96,-261.51 621.08,-252.87 610.9,-255.8 614.96,-261.51"/>
</g>
<!-- &#45;5&#45;&gt;3642 -->
<g id="edge49" class="edge">
<title>&#45;5&#45;&gt;3642</title>
<path fill="none" stroke="red" stroke-width="0.25" d="M233.97,-388.91C288.7,-379.98 516.13,-342.9 603.04,-328.73"/>
<polygon fill="red" stroke="red" stroke-width="0.25" points="603.48,-332.2 612.78,-327.14 602.35,-325.29 603.48,-332.2"/>
</g>
<!-- &#45;6 -->
<g id="node6" class="node">
<title>&#45;6</title>
<polygon fill="lightgray" stroke="black" points="555.75,-247.73 532.25,-247.73 532.25,-228.48 555.75,-228.48 555.75,-247.73"/>
<text text-anchor="middle" x="544" y="-235.18" font-family="Times New Roman,serif" font-size="9.00">&#45;6</text>
</g>
<!-- &#45;6&#45;&gt;0 -->
<g id="edge8" class="edge">
<title>&#45;6&#45;&gt;0</title>
<path fill="none" stroke="green" stroke-width="0.2" d="M534.56,-228.21C522.11,-216.49 499.97,-195.63 484.44,-181"/>
<polygon fill="green" stroke="green" stroke-width="0.2" points="486.91,-178.52 477.23,-174.21 482.11,-183.61 486.91,-178.52"/>
</g>
<!-- &#45;6&#45;&gt;1 -->
<g id="edge9" class="edge">
<title>&#45;6&#45;&gt;1</title>
<path fill="none" stroke="red" stroke-width="0.25" d="M542.02,-228.15C534.96,-196.23 510.9,-87.41 500.2,-39.02"/>
<polygon fill="red" stroke="red" stroke-width="0.25" points="503.67,-38.51 498.1,-29.5 496.84,-40.02 503.67,-38.51"/>
</g>
<!-- &#45;6&#45;&gt;2 -->
<g id="edge10" class="edge">
<title>&#45;6&#45;&gt;2</title>
<path fill="none" stroke="green" stroke-width="0.37" d="M531.77,-234.13C513.39,-229.67 477.54,-221.04 447,-214.07 373.82,-197.36 287.06,-178.67 245.53,-169.8"/>
<polygon fill="green" stroke="green" stroke-width="0.37" points="246.35,-166.39 235.84,-167.73 244.89,-173.24 246.35,-166.39"/>
</g>
<!-- &#45;6&#45;&gt;3 -->
<g id="edge11" class="edge">
<title>&#45;6&#45;&gt;3</title>
<path fill="none" stroke="green" stroke-width="0.17" stroke-dasharray="1,5" d="M550.53,-228.01C554.31,-223.3 559.41,-217.78 565,-214.07 601.73,-189.69 651.86,-175.8 681.1,-169.26"/>
<polygon fill="green" stroke="green" stroke-width="0.17" points="681.56,-172.74 690.61,-167.23 680.1,-165.89 681.56,-172.74"/>
</g>
<!-- &#45;7 -->
<g id="node7" class="node">
<title>&#45;7</title>
<polygon fill="lightgray" stroke="black" points="333.75,-247.73 310.25,-247.73 310.25,-228.48 333.75,-228.48 333.75,-247.73"/>
<text text-anchor="middle" x="322" y="-235.18" font-family="Times New Roman,serif" font-size="9.00">&#45;7</text>
</g>
<!-- &#45;7&#45;&gt;0 -->
<g id="edge12" class="edge">
<title>&#45;7&#45;&gt;0</title>
<path fill="none" stroke="red" stroke-width="0.15" d="M333.87,-231.17C358.26,-218.97 414.36,-190.91 445.38,-175.39"/>
<polygon fill="red" stroke="red" stroke-width="0.15" points="446.56,-178.71 453.93,-171.11 443.43,-172.45 446.56,-178.71"/>
</g>
<!-- &#45;7&#45;&gt;1 -->
<g id="edge13" class="edge">
<title>&#45;7&#45;&gt;1</title>
<path fill="none" stroke="green" stroke-width="0.59" d="M320.45,-228.35C316.1,-200.71 306.63,-114.31 348,-64.99 378.34,-28.82 436.07,-18.98 469.45,-16.37"/>
<polygon fill="green" stroke="green" stroke-width="0.59" points="469.49,-19.87 479.26,-15.77 469.07,-12.88 469.49,-19.87"/>
</g>
<!-- &#45;7&#45;&gt;2 -->
<g id="edge14" class="edge">
<title>&#45;7&#45;&gt;2</title>
<path fill="none" stroke="red" stroke-width="0.26" stroke-dasharray="1,5" d="M312.65,-228.24C307.81,-223.81 301.74,-218.47 296,-214.07 278.47,-200.62 257.38,-186.91 242.04,-177.33"/>
<polygon fill="red" stroke="red" stroke-width="0.26" points="244,-174.43 233.65,-172.16 240.33,-180.39 244,-174.43"/>
</g>
<!-- &#45;8 -->
<g id="node8" class="node">
<title>&#45;8</title>
<polygon fill="lightgray" stroke="black" points="597.75,-247.73 574.25,-247.73 574.25,-228.48 597.75,-228.48 597.75,-247.73"/>
<text text-anchor="middle" x="586" y="-235.18" font-family="Times New Roman,serif" font-size="9.00">&#45;8</text>
</g>
<!-- &#45;8&#45;&gt;0 -->
<g id="edge15" class="edge">
<title>&#45;8&#45;&gt;0</title>
<path fill="none" stroke="green" stroke-width="0.41" stroke-dasharray="1,5" d="M579.27,-228.29C575.44,-223.66 570.34,-218.13 565,-214.07 541.63,-196.31 510.92,-182.01 490.15,-173.43"/>
<polygon fill="green" stroke="green" stroke-width="0.41" points="491.72,-170.29 481.14,-169.81 489.12,-176.78 491.72,-170.29"/>
</g>
<!-- &#45;8&#45;&gt;1 -->
<g id="edge16" class="edge">
<title>&#45;8&#45;&gt;1</title>
<path fill="none" stroke="red" stroke-width="0.21" stroke-dasharray="1,5" d="M583.56,-228.26C576.3,-202.43 553.52,-125.15 525,-64.99 520.21,-54.88 513.91,-44.21 508.32,-35.37"/>
<polygon fill="red" stroke="red" stroke-width="0.21" points="511.4,-33.68 503.03,-27.19 505.53,-37.49 511.4,-33.68"/>
</g>
<!-- &#45;8&#45;&gt;3 -->
<g id="edge17" class="edge">
<title>&#45;8&#45;&gt;3</title>
<path fill="none" stroke="green" stroke-width="0.36" stroke-dasharray="1,5" d="M592.73,-228.29C596.56,-223.66 601.66,-218.13 607,-214.07 630.37,-196.31 661.08,-182.01 681.85,-173.43"/>
<polygon fill="green" stroke="green" stroke-width="0.36" points="682.95,-176.76 690.93,-169.78 680.35,-170.26 682.95,-176.76"/>
</g>
<!-- 3121 -->
<g id="node21" class="node">
<title>3121</title>
<ellipse fill="white" stroke="black" cx="606" cy="-89.03" rx="24.04" ry="24.04"/>
<text text-anchor="middle" x="606" y="-86.11" font-family="Times New Roman,serif" font-size="9.00">3121</text>
</g>
<!-- &#45;8&#45;&gt;3121 -->
<g id="edge35" class="edge">
<title>&#45;8&#45;&gt;3121</title>
<path fill="none" stroke="green" stroke-width="0.18" stroke-dasharray="1,5" d="M587.19,-228.35C589.94,-208.12 596.86,-157.27 601.49,-123.19"/>
<polygon fill="green" stroke="green" stroke-width="0.18" points="604.93,-123.85 602.81,-113.47 598,-122.91 604.93,-123.85"/>
</g>
<!-- &#45;9 -->
<g id="node9" class="node">
<title>&#45;9</title>
<polygon fill="lightgray" stroke="black" points="253.75,-247.73 230.25,-247.73 230.25,-228.48 253.75,-228.48 253.75,-247.73"/>
<text text-anchor="middle" x="242" y="-235.18" font-family="Times New Roman,serif" font-size="9.00">&#45;9</text>
</g>
<!-- &#45;9&#45;&gt;2 -->
<g id="edge18" class="edge">
<title>&#45;9&#45;&gt;2</title>
<path fill="none" stroke="red" stroke-width="0.15" stroke-dasharray="1,5" d="M239.42,-228.21C236.53,-218.2 231.7,-201.55 227.72,-187.78"/>
<polygon fill="red" stroke="red" stroke-width="0.15" points="231.09,-186.84 224.95,-178.2 224.37,-188.78 231.09,-186.84"/>
</g>
<!-- &#45;10 -->
<g id="node10" class="node">
<title>&#45;10</title>
<polygon fill="lightgray" stroke="black" points="94,-247.73 66,-247.73 66,-228.48 94,-228.48 94,-247.73"/>
<text text-anchor="middle" x="80" y="-235.18" font-family="Times New Roman,serif" font-size="9.00">&#45;10</text>
</g>
<!-- &#45;10&#45;&gt;1 -->
<g id="edge19" class="edge">
<title>&#45;10&#45;&gt;1</title>
<path fill="none" stroke="green" stroke-width="0.75" d="M89.67,-228.1C120.65,-199.76 221.17,-111.46 320,-64.99 370.83,-41.09 435.52,-26.51 470.26,-19.83"/>
<polygon fill="green" stroke="green" stroke-width="0.75" points="470.53,-23.34 479.72,-18.08 469.25,-16.46 470.53,-23.34"/>
</g>
<!-- &#45;10&#45;&gt;2 -->
<g id="edge20" class="edge">
<title>&#45;10&#45;&gt;2</title>
<path fill="none" stroke="green" stroke-width="0.14" stroke-dasharray="1,5" d="M89.6,-228.08C94.79,-223.51 101.46,-218.09 108,-214.07 137.25,-196.1 174.17,-181.23 197.69,-172.62"/>
<polygon fill="green" stroke="green" stroke-width="0.14" points="198.75,-175.96 206.98,-169.29 196.39,-169.37 198.75,-175.96"/>
</g>
<!-- &#45;11 -->
<g id="node11" class="node">
<title>&#45;11</title>
<polygon fill="lightgray" stroke="black" points="488,-98.66 460,-98.66 460,-79.41 488,-79.41 488,-98.66"/>
<text text-anchor="middle" x="474" y="-86.11" font-family="Times New Roman,serif" font-size="9.00">&#45;11</text>
</g>
<!-- &#45;11&#45;&gt;1 -->
<g id="edge21" class="edge">
<title>&#45;11&#45;&gt;1</title>
<path fill="none" stroke="green" stroke-width="0.86" stroke-dasharray="1,5" d="M476.58,-79.14C479.42,-69.33 484.11,-53.12 488.04,-39.52"/>
<polygon fill="green" stroke="green" stroke-width="0.86" points="491.34,-40.74 490.76,-30.16 484.61,-38.79 491.34,-40.74"/>
</g>
<!-- &#45;12 -->
<g id="node12" class="node">
<title>&#45;12</title>
<polygon fill="lightgray" stroke="black" points="720,-331.82 692,-331.82 692,-312.57 720,-312.57 720,-331.82"/>
<text text-anchor="middle" x="706" y="-319.27" font-family="Times New Roman,serif" font-size="9.00">&#45;12</text>
</g>
<!-- &#45;12&#45;&gt;0 -->
<g id="edge22" class="edge">
<title>&#45;12&#45;&gt;0</title>
<path fill="none" stroke="green" stroke-width="0.38" stroke-dasharray="1,5" d="M694.23,-312.25C687.45,-307.47 678.59,-301.83 670,-298.15 608.17,-271.66 576.75,-302.59 523,-262.15 498.07,-243.4 482.45,-210.06 474.23,-187.64"/>
<polygon fill="green" stroke="green" stroke-width="0.38" points="477.63,-186.76 471.06,-178.45 471.01,-189.04 477.63,-186.76"/>
</g>
<!-- &#45;12&#45;&gt;1 -->
<g id="edge23" class="edge">
<title>&#45;12&#45;&gt;1</title>
<path fill="none" stroke="green" stroke-width="0.23" d="M720.47,-316.71C757.35,-305.15 852.58,-274.36 861,-262.15 873.13,-244.55 868.5,-234.08 861,-214.07 830.15,-131.75 806.84,-109.45 731,-64.99 662.25,-24.69 565.24,-16.96 520.03,-15.64"/>
<polygon fill="green" stroke="green" stroke-width="0.23" points="520.1,-12.14 510.03,-15.44 519.96,-19.14 520.1,-12.14"/>
</g>
<!-- &#45;12&#45;&gt;3 -->
<g id="edge24" class="edge">
<title>&#45;12&#45;&gt;3</title>
<path fill="none" stroke="red" stroke-width="0.58" d="M705.94,-312.32C705.79,-288.85 705.38,-224.47 705.16,-188.93"/>
<polygon fill="red" stroke="red" stroke-width="0.58" points="708.66,-189.35 705.09,-179.37 701.66,-189.39 708.66,-189.35"/>
</g>
<!-- &#45;12&#45;&gt;598 -->
<g id="edge31" class="edge">
<title>&#45;12&#45;&gt;598</title>
<path fill="none" stroke="green" stroke-width="0.52" stroke-dasharray="1,5" d="M698.35,-312.09C688.43,-300.29 670.76,-279.27 656.92,-262.81"/>
<polygon fill="green" stroke="green" stroke-width="0.52" points="659.72,-260.69 650.6,-255.29 654.36,-265.2 659.72,-260.69"/>
</g>
<!-- &#45;13 -->
<g id="node13" class="node">
<title>&#45;13</title>
<polygon fill="lightgray" stroke="black" points="216,-331.82 188,-331.82 188,-312.57 216,-312.57 216,-331.82"/>
<text text-anchor="middle" x="202" y="-319.27" font-family="Times New Roman,serif" font-size="9.00">&#45;13</text>
</g>
<!-- &#45;13&#45;&gt;1 -->
<g id="edge25" class="edge">
<title>&#45;13&#45;&gt;1</title>
<path fill="none" stroke="green" stroke-width="0.23" stroke-dasharray="1,5" d="M187.67,-320.35C157.35,-317.7 87.03,-306.81 57,-262.15 45.07,-244.42 47.96,-233.43 57,-214.07 100.65,-120.56 141.75,-109.19 235,-64.99 315.12,-27.01 422.18,-18.17 470.05,-16.11"/>
<polygon fill="green" stroke="green" stroke-width="0.23" points="469.91,-19.62 479.77,-15.76 469.65,-12.62 469.91,-19.62"/>
</g>
<!-- &#45;13&#45;&gt;2 -->
<g id="edge26" class="edge">
<title>&#45;13&#45;&gt;2</title>
<path fill="none" stroke="green" stroke-width="0.13" stroke-dasharray="1,5" d="M196.84,-312.35C186.67,-293.72 166.09,-249.24 179,-214.07 183.79,-201.01 193.73,-189.03 202.73,-180.14"/>
<polygon fill="green" stroke="green" stroke-width="0.13" points="204.86,-182.93 209.8,-173.56 200.1,-177.81 204.86,-182.93"/>
</g>
<!-- &#45;13&#45;&gt;598 -->
<g id="edge34" class="edge">
<title>&#45;13&#45;&gt;598</title>
<path fill="none" stroke="red" stroke-width="0.24" stroke-dasharray="1,5" d="M216.32,-317.63C236.61,-312.68 274.94,-303.72 308,-298.15 439.99,-275.91 483.07,-312.71 607,-262.15 609.34,-261.19 611.66,-260.01 613.9,-258.67"/>
<polygon fill="red" stroke="red" stroke-width="0.24" points="615.55,-261.79 621.81,-253.24 611.59,-256.02 615.55,-261.79"/>
</g>
<!-- &#45;13&#45;&gt;3479 -->
<g id="edge38" class="edge">
<title>&#45;13&#45;&gt;3479</title>
<path fill="none" stroke="green" stroke-width="0.11" d="M216.24,-315.68C249.95,-302.62 335.34,-269.56 382.13,-251.45"/>
<polygon fill="green" stroke="green" stroke-width="0.11" points="383.28,-254.76 391.34,-247.88 380.75,-248.23 383.28,-254.76"/>
</g>
<!-- &#45;14 -->
<g id="node14" class="node">
<title>&#45;14</title>
<polygon fill="lightgray" stroke="black" points="629,-401.48 601,-401.48 601,-382.23 629,-382.23 629,-401.48"/>
<text text-anchor="middle" x="615" y="-388.93" font-family="Times New Roman,serif" font-size="9.00">&#45;14</text>
</g>
<!-- &#45;14&#45;&gt;1 -->
<g id="edge27" class="edge">
<title>&#45;14&#45;&gt;1</title>
<path fill="none" stroke="red" stroke-width="0.65" stroke-dasharray="1,5" d="M600.51,-391.44C565.55,-392.11 475.28,-389.27 419,-346.23 376.16,-313.47 362,-293.04 362,-239.11 362,-239.11 362,-239.11 362,-162.57 362,-97.15 435.28,-47.82 473.05,-26.73"/>
<polygon fill="red" stroke="red" stroke-width="0.65" points="474.25,-30.06 481.38,-22.23 470.92,-23.9 474.25,-30.06"/>
</g>
<!-- &#45;14&#45;&gt;2 -->
<g id="edge28" class="edge">
<title>&#45;14&#45;&gt;2</title>
<path fill="none" stroke="red" stroke-width="0.21" d="M600.59,-389.97C551.33,-386.73 390.39,-374.15 348,-346.23 289.67,-307.82 304.57,-270.18 263,-214.07 254.99,-203.25 245.31,-191.75 237.26,-182.56"/>
<polygon fill="red" stroke="red" stroke-width="0.21" points="239.89,-180.26 230.64,-175.1 234.66,-184.9 239.89,-180.26"/>
</g>
<!-- &#45;14&#45;&gt;3 -->
<g id="edge37" class="edge">
<title>&#45;14&#45;&gt;3</title>
<path fill="none" stroke="green" stroke-width="0.31" stroke-dasharray="1,5" d="M629.22,-385.53C659.45,-374.17 727.51,-348.42 729,-346.23 762.77,-296.75 733.88,-221.78 716.23,-185.59"/>
<polygon fill="green" stroke="green" stroke-width="0.31" points="719.47,-184.22 711.83,-176.88 713.22,-187.38 719.47,-184.22"/>
</g>
<!-- 5010 -->
<g id="node22" class="node">
<title>5010</title>
<ellipse fill="white" stroke="black" cx="814" cy="-322.19" rx="24.04" ry="24.04"/>
<text text-anchor="middle" x="814" y="-319.27" font-family="Times New Roman,serif" font-size="9.00">5010</text>
</g>
<!-- &#45;14&#45;&gt;5010 -->
<g id="edge46" class="edge">
<title>&#45;14&#45;&gt;5010</title>
<path fill="none" stroke="green" stroke-width="0.34" d="M629.03,-385.33C631.97,-384.25 635.07,-383.16 638,-382.23 698.42,-363.08 717.62,-370.92 776,-346.23 779.13,-344.91 782.3,-343.36 785.41,-341.7"/>
<polygon fill="green" stroke="green" stroke-width="0.34" points="787.08,-344.78 794.02,-336.77 783.6,-338.71 787.08,-344.78"/>
</g>
<!-- &#45;14&#45;&gt;3642 -->
<g id="edge42" class="edge">
<title>&#45;14&#45;&gt;3642</title>
<path fill="none" stroke="red" stroke-width="0.19" d="M617.88,-382.01C620.13,-375.08 623.41,-364.99 626.62,-355.11"/>
<polygon fill="red" stroke="red" stroke-width="0.19" points="629.91,-356.31 629.68,-345.71 623.26,-354.14 629.91,-356.31"/>
</g>
<!-- &#45;15 -->
<g id="node15" class="node">
<title>&#45;15</title>
<polygon fill="lightgray" stroke="black" points="676,-98.66 648,-98.66 648,-79.41 676,-79.41 676,-98.66"/>
<text text-anchor="middle" x="662" y="-86.11" font-family="Times New Roman,serif" font-size="9.00">&#45;15</text>
</g>
<!-- &#45;15&#45;&gt;1 -->
<g id="edge29" class="edge">
<title>&#45;15&#45;&gt;1</title>
<path fill="none" stroke="green" stroke-width="0.2" d="M654.7,-78.94C650.52,-74.23 644.94,-68.71 639,-64.99 600.67,-41.03 549.3,-27 519.41,-20.32"/>
<polygon fill="green" stroke="green" stroke-width="0.2" points="520.24,-16.92 509.73,-18.25 518.78,-23.76 520.24,-16.92"/>
</g>
<!-- &#45;16 -->
<g id="node16" class="node">
<title>&#45;16</title>
<polygon fill="lightgray" stroke="black" points="722,-98.66 694,-98.66 694,-79.41 722,-79.41 722,-98.66"/>
<text text-anchor="middle" x="708" y="-86.11" font-family="Times New Roman,serif" font-size="9.00">&#45;16</text>
</g>
<!-- &#45;16&#45;&gt;1 -->
<g id="edge30" class="edge">
<title>&#45;16&#45;&gt;1</title>
<path fill="none" stroke="red" stroke-width="0.51" stroke-dasharray="1,5" d="M701.21,-79.21C697.03,-74.35 691.28,-68.59 685,-64.99 631.4,-34.26 558.46,-22.24 520.43,-17.83"/>
<polygon fill="red" stroke="red" stroke-width="0.51" points="520.89,-14.36 510.58,-16.78 520.15,-21.32 520.89,-14.36"/>
</g>
<!-- 3&#45;&gt;3121 -->
<g id="edge44" class="edge">
<title>3&#45;&gt;3121</title>
<path fill="none" stroke="green" stroke-width="0.37" d="M693.64,-154.25C679.04,-143.55 653.21,-124.62 633.36,-110.08"/>
<polygon fill="green" stroke="green" stroke-width="0.37" points="635.58,-107.37 625.44,-104.28 631.44,-113.01 635.58,-107.37"/>
</g>
<!-- 3121&#45;&gt;1 -->
<g id="edge36" class="edge">
<title>3121&#45;&gt;1</title>
<path fill="none" stroke="red" stroke-width="0.52" stroke-dasharray="1,5" d="M586.16,-75.06C566.33,-62.11 535.97,-42.27 515.81,-29.09"/>
<polygon fill="red" stroke="red" stroke-width="0.52" points="517.76,-26.19 507.48,-23.65 513.93,-32.05 517.76,-26.19"/>
</g>
<!-- 5010&#45;&gt;3 -->
<g id="edge47" class="edge">
<title>5010&#45;&gt;3</title>
<path fill="none" stroke="green" stroke-width="0.67" d="M810.14,-298.32C805.33,-275.19 795.26,-239.33 776,-214.07 763.22,-197.31 743.13,-184.05 727.57,-175.49"/>
<polygon fill="green" stroke="green" stroke-width="0.67" points="729.52,-172.56 719.03,-171.03 726.28,-178.76 729.52,-172.56"/>
</g>
<!-- 598&#45;&gt;1 -->
<g id="edge41" class="edge">
<title>598&#45;&gt;1</title>
<path fill="none" stroke="green" stroke-width="0.47" d="M620.99,-224.43C616.51,-220.99 611.61,-217.32 607,-214.07 573.26,-190.25 470.73,-149.35 451,-113.07 440.79,-94.3 443.4,-84.97 451,-64.99 456.06,-51.69 466.51,-39.68 475.95,-30.83"/>
<polygon fill="green" stroke="green" stroke-width="0.47" points="478.1,-33.6 483.3,-24.37 473.48,-28.34 478.1,-33.6"/>
</g>
<!-- 598&#45;&gt;3 -->
<g id="edge32" class="edge">
<title>598&#45;&gt;3</title>
<path fill="none" stroke="green" stroke-width="0.27" stroke-dasharray="1,5" d="M651.09,-222.08C661.94,-210.5 676.97,-194.47 688.4,-182.28"/>
<polygon fill="green" stroke="green" stroke-width="0.27" points="690.75,-184.89 695.03,-175.2 685.64,-180.1 690.75,-184.89"/>
</g>
<!-- 3479&#45;&gt;0 -->
<g id="edge39" class="edge">
<title>3479&#45;&gt;0</title>
<path fill="none" stroke="red" stroke-width="0.11" d="M427.93,-218.05C435.59,-207.56 445.09,-194.56 452.8,-184.01"/>
<polygon fill="red" stroke="red" stroke-width="0.11" points="455.61,-186.09 458.68,-175.95 449.96,-181.96 455.61,-186.09"/>
</g>
<!-- 3642&#45;&gt;3 -->
<g id="edge43" class="edge">
<title>3642&#45;&gt;3</title>
<path fill="none" stroke="red" stroke-width="0.59" stroke-dasharray="1,5" d="M648.2,-300.39C654.07,-289.19 661.22,-275.06 667,-262.15 678.21,-237.09 689.42,-207.63 696.73,-187.69"/>
<polygon fill="red" stroke="red" stroke-width="0.59" points="699.93,-189.12 700.06,-178.53 693.35,-186.73 699.93,-189.12"/>
</g>
<!-- 3642&#45;&gt;598 -->
<g id="edge45" class="edge">
<title>3642&#45;&gt;598</title>
<path fill="none" stroke="green" stroke-width="0.42" d="M637,-297.89C637,-289.17 637,-279.12 637,-269.83"/>
<polygon fill="green" stroke="green" stroke-width="0.42" points="640.5,-270.03 637,-260.03 633.5,-270.03 640.5,-270.03"/>
</g>
</g>
</svg>
